<svg width="192" height="74" viewBox="0 0 192 74" fill="none" xmlns="http://www.w3.org/2000/svg">
<path fill-rule="evenodd" clip-rule="evenodd" d="M14.4056 16.8763C14.4056 16.8763 18.2701 15.5853 19.4033 10.971C20.5393 6.35665 18.3434 2.8501 18.3434 2.8501C18.3434 2.8501 13.8672 4.47371 12.7594 8.9753C11.6545 13.4741 14.4056 16.8763 14.4056 16.8763ZM8.8385 25.4904C8.8385 25.4904 11.3359 22.2713 9.72078 17.8008C8.09999 13.333 4.32565 11.6361 4.32565 11.6361C4.32565 11.6361 1.50123 15.4724 3.07975 19.8275C4.65544 24.1853 8.8385 25.4904 8.8385 25.4904ZM15.7698 27.7762C15.7698 27.7762 20.1361 27.4267 22.6363 23.5227C25.1366 19.6215 23.2255 15.258 23.2255 15.258C23.2255 15.258 19.1721 16.0811 16.6042 20.0866C14.0391 24.0892 15.7698 27.7762 15.7698 27.7762ZM16.3874 40.6724C16.3874 40.6724 14.1916 37.2391 16.2126 32.9349C18.2337 28.6306 22.1433 27.2889 22.1433 27.2889C22.1433 27.2889 24.6069 31.3648 22.6422 35.562C20.6747 39.7535 16.3874 40.6724 16.3874 40.6724ZM26.081 36.4018C26.081 36.4018 22.3123 38.1099 20.7056 42.5805C19.0989 47.0595 21.6048 50.2673 21.6048 50.2673C21.6048 50.2673 25.7822 48.951 27.3495 44.5903C28.9139 40.2297 26.081 36.4018 26.081 36.4018ZM33.0913 52.8522C32.8461 57.4778 29.2211 59.9443 29.2211 59.9443C29.2211 59.9443 25.8978 57.5878 26.1458 52.8438C26.3967 48.097 29.5143 45.3768 29.5143 45.3768C29.5143 45.3768 33.3337 48.2238 33.0913 52.8522ZM7.40944 27.6976C10.2705 31.4889 8.83574 35.3027 8.83574 35.3027C8.83574 35.3027 4.45255 35.2914 1.66196 31.5904C-1.12863 27.8921 0.438611 23.3934 0.438611 23.3934C0.438611 23.3934 4.54275 23.9036 7.40944 27.6976ZM12.038 45.3658C12.038 45.3658 12.5877 41.3293 8.9571 38.2681C5.32088 35.2041 1.20547 35.6213 1.20547 35.6213C1.20547 35.6213 0.675536 40.3568 4.21592 43.3419C7.76194 46.3242 12.038 45.3658 12.038 45.3658ZM11.8321 47.8573C16.2238 49.6726 16.9144 53.6865 16.9144 53.6865C16.9144 53.6865 13.1316 55.8964 8.85267 54.1291C4.57377 52.3532 3.64358 47.6797 3.64358 47.6797C3.64358 47.6797 7.43765 46.0364 11.8321 47.8573ZM19.0454 57.1421C14.4677 55.8624 10.8935 57.9455 10.8935 57.9455C10.8935 57.9455 12.3734 62.4724 16.8327 63.7211C21.2976 64.9699 24.7872 62.323 24.7872 62.323C24.7872 62.323 23.6231 58.419 19.0454 57.1421ZM12.8468 18.627L14.882 19.6276C14.4704 20.4704 5.15158 40.5655 33.1589 64.511L31.6875 66.2333C2.27079 41.087 12.7397 18.8497 12.8468 18.627Z" fill="#A8A9B2"/>
<path fill-rule="evenodd" clip-rule="evenodd" d="M177.587 16.8335C177.587 16.8335 173.728 15.5425 172.595 10.9282C171.459 6.31382 173.658 2.80444 173.658 2.80444C173.658 2.80444 178.134 4.42806 179.239 8.93246C180.344 13.4284 177.587 16.8335 177.587 16.8335ZM183.16 25.4479C183.16 25.4479 180.66 22.2288 182.278 17.7611C183.893 13.2905 187.67 11.5936 187.67 11.5936C187.67 11.5936 190.492 15.4271 188.913 19.785C187.343 24.1428 183.16 25.4479 183.16 25.4479ZM176.229 27.7342C176.229 27.7342 171.862 27.3819 169.359 23.4807C166.859 19.5795 168.77 15.2161 168.77 15.2161C168.77 15.2161 172.824 16.0391 175.394 20.0418C177.959 24.0473 176.229 27.7342 176.229 27.7342ZM175.612 40.6267C175.612 40.6267 177.807 37.1935 175.786 32.8892C173.765 28.5878 169.853 27.2432 169.853 27.2432C169.853 27.2432 167.392 31.3191 169.354 35.5163C171.324 39.7078 175.612 40.6267 175.612 40.6267ZM165.918 36.3587C165.918 36.3587 169.684 38.0641 171.293 42.5431C172.9 47.0194 170.391 50.2271 170.391 50.2271C170.391 50.2271 166.217 48.9079 164.649 44.5473C163.082 40.1866 165.918 36.3587 165.918 36.3587ZM158.904 52.8067C159.15 57.4352 162.772 59.8988 162.772 59.8988C162.772 59.8988 166.101 57.5479 165.85 52.7983C165.596 48.0486 162.484 45.3285 162.484 45.3285C162.484 45.3285 158.662 48.1783 158.904 52.8067ZM184.587 27.6546C181.728 31.4459 183.163 35.2597 183.163 35.2597C183.163 35.2597 187.543 35.2484 190.337 31.5473C193.13 27.8491 191.56 23.3503 191.56 23.3503C191.56 23.3503 187.453 23.8605 184.587 27.6546ZM179.961 45.323C179.961 45.323 179.408 41.2865 183.042 38.2197C186.678 35.1585 190.793 35.5757 190.793 35.5757C190.793 35.5757 191.323 40.314 187.78 43.2963C184.237 46.2785 179.961 45.323 179.961 45.323ZM180.167 47.809C175.775 49.6271 175.082 53.6439 175.082 53.6439C175.082 53.6439 178.864 55.8538 183.146 54.078C187.425 52.305 188.355 47.6314 188.355 47.6314C188.355 47.6314 184.564 45.9881 180.167 47.809ZM172.951 57.0995C177.528 55.8226 181.105 57.9029 181.105 57.9029C181.105 57.9029 179.628 62.427 175.166 63.6842C170.704 64.9273 167.214 62.2804 167.214 62.2804C167.214 62.2804 168.376 58.3793 172.951 57.0995ZM179.155 18.584L177.114 19.5846C177.525 20.4246 186.844 40.5253 158.843 64.4652L160.311 66.1874C189.731 41.044 179.262 18.8066 179.155 18.584Z" fill="#A8A9B2"/>
<path d="M44.3229 7.83943V18.9995H40.9439V2.10471H44.4418L51.8184 13.2648V2.10471H55.1974V18.9995H51.6995L44.3229 7.83943ZM69.7846 13.7407H60.7423C60.8534 14.5973 61.1706 15.2557 61.6941 15.7157C62.2176 16.1599 62.9077 16.382 63.7643 16.382C64.3037 16.382 64.7875 16.271 65.2159 16.0489C65.66 15.8109 65.9773 15.4698 66.1677 15.0257H69.5704C69.2056 16.2948 68.4838 17.3259 67.4051 18.1191C66.3422 18.8964 65.0969 19.2851 63.6692 19.2851C61.829 19.2851 60.3219 18.6743 59.148 17.4528C57.9741 16.2313 57.3871 14.6608 57.3871 12.7413C57.3871 10.8852 57.9741 9.33854 59.148 8.10118C60.3219 6.86381 61.821 6.24513 63.6454 6.24513C65.4697 6.24513 66.9529 6.86381 68.0951 8.10118C69.2532 9.32268 69.8322 10.8694 69.8322 12.7413L69.7846 13.7407ZM63.6216 8.95781C62.8601 8.95781 62.2335 9.17197 61.7417 9.60029C61.25 10.0127 60.9327 10.5838 60.7899 11.3136H66.4532C66.3263 10.5997 66.017 10.0286 65.5252 9.60029C65.0334 9.17197 64.3989 8.95781 63.6216 8.95781ZM82.4551 18.9995L79.9328 11.2898H79.8852L77.3391 18.9995H74.1743L69.8197 6.53067H73.3177L75.8162 14.7401L78.3861 6.53067H81.4319L84.0256 14.7877L86.548 6.53067H89.9745L85.6199 18.9995H82.4551ZM98.6522 18.9995H95.0115L101.365 2.10471H105.029L111.383 18.9995H107.647L106.624 16.0965H99.6755L98.6522 18.9995ZM103.173 6.3879H103.126L100.794 12.9793H105.505L103.173 6.3879ZM115.894 17.667V23.949H112.515V6.53067H115.633V8.05359C116.457 6.84795 117.774 6.24513 119.583 6.24513C121.343 6.24513 122.739 6.86381 123.771 8.10118C124.802 9.33854 125.317 10.8932 125.317 12.7651C125.317 14.637 124.802 16.1916 123.771 17.429C122.739 18.6664 121.343 19.2851 119.583 19.2851C118.758 19.2851 118.02 19.1344 117.37 18.8329C116.735 18.5157 116.243 18.127 115.894 17.667ZM116.632 10.219C116.077 10.8852 115.799 11.734 115.799 12.7651C115.799 13.7962 116.077 14.6449 116.632 15.3112C117.203 15.9775 117.949 16.3106 118.869 16.3106C119.789 16.3106 120.526 15.9775 121.082 15.3112C121.653 14.6449 121.938 13.7962 121.938 12.7651C121.938 11.734 121.653 10.8852 121.082 10.219C120.526 9.5527 119.789 9.21956 118.869 9.21956C117.949 9.21956 117.203 9.5527 116.632 10.219ZM130.386 17.667V23.949H127.007V6.53067H130.125V8.05359C130.949 6.84795 132.266 6.24513 134.075 6.24513C135.835 6.24513 137.231 6.86381 138.263 8.10118C139.294 9.33854 139.809 10.8932 139.809 12.7651C139.809 14.637 139.294 16.1916 138.263 17.429C137.231 18.6664 135.835 19.2851 134.075 19.2851C133.25 19.2851 132.512 19.1344 131.862 18.8329C131.227 18.5157 130.735 18.127 130.386 17.667ZM131.124 10.219C130.569 10.8852 130.291 11.734 130.291 12.7651C130.291 13.7962 130.569 14.6449 131.124 15.3112C131.695 15.9775 132.441 16.3106 133.361 16.3106C134.281 16.3106 135.019 15.9775 135.574 15.3112C136.145 14.6449 136.43 13.7962 136.43 12.7651C136.43 11.734 136.145 10.8852 135.574 10.219C135.019 9.5527 134.281 9.21956 133.361 9.21956C132.441 9.21956 131.695 9.5527 131.124 10.219ZM146.181 19.2851C142.786 19.2851 140.986 17.8415 140.779 14.9543H144.206C144.238 15.4143 144.42 15.803 144.753 16.1203C145.102 16.4217 145.61 16.5724 146.276 16.5724C146.911 16.5724 147.395 16.4693 147.728 16.263C148.061 16.0568 148.227 15.7792 148.227 15.4302C148.227 15.0495 147.989 14.7718 147.513 14.5973C147.038 14.407 146.459 14.2563 145.776 14.1452C145.11 14.0342 144.436 13.8835 143.754 13.6931C143.072 13.5028 142.493 13.13 142.017 12.5747C141.541 12.0195 141.303 11.2818 141.303 10.3617C141.303 9.2037 141.763 8.22809 142.683 7.4349C143.603 6.64172 144.809 6.24513 146.3 6.24513C147.997 6.24513 149.259 6.67345 150.083 7.53008C150.908 8.38672 151.353 9.36234 151.416 10.4569H148.156C148.124 10.0286 147.942 9.67168 147.609 9.38613C147.291 9.10059 146.847 8.95781 146.276 8.95781C145.737 8.95781 145.316 9.07679 145.015 9.31475C144.714 9.53684 144.563 9.82238 144.563 10.1714C144.563 10.5521 144.801 10.8297 145.277 11.0042C145.753 11.1787 146.324 11.3215 146.99 11.4325C147.672 11.5277 148.346 11.6705 149.013 11.8609C149.695 12.0512 150.274 12.432 150.75 13.003C151.226 13.5741 151.464 14.3356 151.464 15.2874C151.464 16.4455 150.988 17.4052 150.036 18.1667C149.1 18.9123 147.815 19.2851 146.181 19.2851ZM60.3455 31.0542L56.919 42.9995H53.2544L48.067 26.1047H51.9695L55.1105 38.05H55.1581L58.537 26.1047H62.2967L65.6757 38.05H65.7233L68.8643 26.1047H72.6716L67.4842 42.9995H63.8196L60.3931 31.0542H60.3455ZM84.6136 37.7407H75.5713C75.6823 38.5973 75.9996 39.2557 76.5231 39.7157C77.0466 40.1599 77.7367 40.382 78.5933 40.382C79.1327 40.382 79.6165 40.271 80.0448 40.0489C80.489 39.8109 80.8063 39.4698 80.9966 39.0257H84.3994C84.0345 40.2948 83.3127 41.3259 82.234 42.1191C81.1711 42.8964 79.9258 43.2851 78.4981 43.2851C76.6579 43.2851 75.1509 42.6743 73.977 41.4528C72.8031 40.2313 72.2161 38.6608 72.2161 36.7413C72.2161 34.8852 72.8031 33.3385 73.977 32.1012C75.1509 30.8638 76.65 30.2451 78.4743 30.2451C80.2986 30.2451 81.7819 30.8638 82.9241 32.1012C84.0821 33.3227 84.6611 34.8694 84.6611 36.7413L84.6136 37.7407ZM78.4505 32.9578C77.6891 32.9578 77.0625 33.172 76.5707 33.6003C76.0789 34.0127 75.7616 34.5838 75.6189 35.3136H81.2822C81.1553 34.5997 80.8459 34.0286 80.3542 33.6003C79.8624 33.172 79.2278 32.9578 78.4505 32.9578ZM103.619 39.8109V42.9995H92.6494V26.1047H96.1235V39.8109H103.619ZM115.027 41.4052C113.821 42.6584 112.243 43.2851 110.292 43.2851C108.34 43.2851 106.762 42.6584 105.556 41.4052C104.351 40.1361 103.748 38.5894 103.748 36.7651C103.748 34.9408 104.351 33.402 105.556 32.1488C106.762 30.8797 108.34 30.2451 110.292 30.2451C112.243 30.2451 113.821 30.8797 115.027 32.1488C116.233 33.402 116.835 34.9408 116.835 36.7651C116.835 38.5894 116.233 40.1361 115.027 41.4052ZM108.007 34.1714C107.42 34.8059 107.127 35.6705 107.127 36.7651C107.127 37.8597 107.42 38.7243 108.007 39.3588C108.61 39.9933 109.372 40.3106 110.292 40.3106C111.212 40.3106 111.965 39.9933 112.552 39.3588C113.155 38.7243 113.456 37.8597 113.456 36.7651C113.456 35.6705 113.155 34.8059 112.552 34.1714C111.965 33.5368 111.212 33.2196 110.292 33.2196C109.372 33.2196 108.61 33.5368 108.007 34.1714ZM123.466 38.9305L126.511 30.5307H130.009L125.012 42.9995H121.871L116.874 30.5307H120.444L123.466 38.9305ZM142.271 37.7407H133.229C133.34 38.5973 133.657 39.2557 134.181 39.7157C134.704 40.1599 135.394 40.382 136.251 40.382C136.79 40.382 137.274 40.271 137.702 40.0489C138.147 39.8109 138.464 39.4698 138.654 39.0257H142.057C141.692 40.2948 140.97 41.3259 139.892 42.1191C138.829 42.8964 137.583 43.2851 136.156 43.2851C134.316 43.2851 132.808 42.6743 131.635 41.4528C130.461 40.2313 129.874 38.6608 129.874 36.7413C129.874 34.8852 130.461 33.3385 131.635 32.1012C132.808 30.8638 134.308 30.2451 136.132 30.2451C137.956 30.2451 139.439 30.8638 140.582 32.1012C141.74 33.3227 142.319 34.8694 142.319 36.7413L142.271 37.7407ZM136.108 32.9578C135.347 32.9578 134.72 33.172 134.228 33.6003C133.737 34.0127 133.419 34.5838 133.276 35.3136H138.94C138.813 34.5997 138.504 34.0286 138.012 33.6003C137.52 33.172 136.885 32.9578 136.108 32.9578Z" fill="#E6E6E6"/>
<path d="M68.4909 63.5906H67.1064L70.0809 55.9111H71.4762L74.4614 63.5906H73.0337L72.4821 62.1088H69.0425L68.4909 63.5906ZM70.7731 57.5335H70.7515L69.4752 60.919H72.0494L70.7731 57.5335ZM76.3617 62.8551V65.8403H75.0745V57.977H76.2643V58.7774C76.6609 58.1573 77.2919 57.8472 78.1571 57.8472C78.9648 57.8472 79.5993 58.1284 80.0608 58.6909C80.5295 59.2533 80.7638 59.9528 80.7638 60.7892C80.7638 61.6256 80.5295 62.3251 80.0608 62.8875C79.5993 63.4428 78.9648 63.7204 78.1571 63.7204C77.3351 63.7204 76.7366 63.4319 76.3617 62.8551ZM76.3184 60.7892C76.3184 61.3084 76.459 61.7374 76.7402 62.0763C77.0287 62.4152 77.4144 62.5847 77.8976 62.5847C78.3735 62.5847 78.7556 62.4152 79.0441 62.0763C79.3325 61.7302 79.4767 61.3012 79.4767 60.7892C79.4767 60.2628 79.3325 59.8266 79.0441 59.4804C78.7556 59.1343 78.3735 58.9613 77.8976 58.9613C77.4144 58.9613 77.0287 59.1343 76.7402 59.4804C76.459 59.8194 76.3184 60.2556 76.3184 60.7892ZM82.9595 62.8551V65.8403H81.6724V57.977H82.8622V58.7774C83.2588 58.1573 83.8897 57.8472 84.755 57.8472C85.5626 57.8472 86.1971 58.1284 86.6586 58.6909C87.1273 59.2533 87.3617 59.9528 87.3617 60.7892C87.3617 61.6256 87.1273 62.3251 86.6586 62.8875C86.1971 63.4428 85.5626 63.7204 84.755 63.7204C83.933 63.7204 83.3345 63.4319 82.9595 62.8551ZM82.9162 60.7892C82.9162 61.3084 83.0569 61.7374 83.3381 62.0763C83.6265 62.4152 84.0123 62.5847 84.4954 62.5847C84.9713 62.5847 85.3535 62.4152 85.6419 62.0763C85.9303 61.7302 86.0746 61.3012 86.0746 60.7892C86.0746 60.2628 85.9303 59.8266 85.6419 59.4804C85.3535 59.1343 84.9713 58.9613 84.4954 58.9613C84.0123 58.9613 83.6265 59.1343 83.3381 59.4804C83.0569 59.8194 82.9162 60.2556 82.9162 60.7892ZM89.6735 63.5906H88.3864V55.4785H89.6735V63.5906ZM96.2356 61.1569H91.9633C92.0137 61.604 92.176 61.9609 92.45 62.2277C92.724 62.4873 93.0845 62.6171 93.5316 62.6171C93.8272 62.6171 94.094 62.545 94.332 62.4008C94.57 62.2566 94.7394 62.0619 94.8404 61.8167H96.1383C95.9652 62.3864 95.6408 62.8479 95.1648 63.2012C94.6961 63.5473 94.1409 63.7204 93.4992 63.7204C92.6627 63.7204 91.9849 63.4428 91.4657 62.8875C90.9538 62.3323 90.6978 61.6293 90.6978 60.7784C90.6978 59.9491 90.9574 59.2533 91.4765 58.6909C91.9957 58.1284 92.6663 57.8472 93.4883 57.8472C94.3104 57.8472 94.9738 58.1248 95.4785 58.6801C95.9905 59.2281 96.2465 59.9203 96.2465 60.7567L96.2356 61.1569ZM93.4883 58.8964C93.0845 58.8964 92.7492 59.0154 92.4824 59.2533C92.2156 59.4913 92.0498 59.8085 91.9849 60.2051H94.9702C94.9125 59.8085 94.7538 59.4913 94.4942 59.2533C94.2347 59.0154 93.8994 58.8964 93.4883 58.8964ZM104.917 63.5906H99.6931V62.4981L102.722 59.6102C103.205 59.156 103.446 58.6692 103.446 58.1501C103.446 57.7895 103.335 57.5011 103.111 57.2848C102.887 57.0684 102.588 56.9603 102.213 56.9603C101.802 56.9603 101.492 57.0793 101.283 57.3172C101.074 57.5552 100.969 57.8688 100.969 58.2582L101.002 58.6152H99.6931C99.6787 58.507 99.6714 58.3808 99.6714 58.2366C99.6714 57.4939 99.9022 56.8954 100.364 56.4411C100.832 55.9796 101.449 55.7489 102.213 55.7489C103.006 55.7489 103.63 55.9688 104.084 56.4087C104.546 56.8485 104.777 57.4182 104.777 58.1176C104.777 58.6152 104.676 59.055 104.474 59.4372C104.279 59.8194 103.944 60.2195 103.468 60.6378L101.499 62.3792H104.917V63.5906ZM108.411 63.7528C107.517 63.7528 106.832 63.3923 106.356 62.6712C105.887 61.9429 105.653 60.9695 105.653 59.7508C105.653 58.5322 105.887 57.5624 106.356 56.8413C106.832 56.113 107.517 55.7489 108.411 55.7489C109.298 55.7489 109.98 56.113 110.455 56.8413C110.931 57.5624 111.169 58.5322 111.169 59.7508C111.169 60.9695 110.931 61.9429 110.455 62.6712C109.98 63.3923 109.298 63.7528 108.411 63.7528ZM109.828 59.7508C109.828 57.9121 109.356 56.9927 108.411 56.9927C107.467 56.9927 106.994 57.9121 106.994 59.7508C106.994 61.5896 107.467 62.509 108.411 62.509C109.356 62.509 109.828 61.5896 109.828 59.7508ZM117.183 63.5906H111.959V62.4981L114.988 59.6102C115.471 59.156 115.712 58.6692 115.712 58.1501C115.712 57.7895 115.601 57.5011 115.377 57.2848C115.154 57.0684 114.854 56.9603 114.479 56.9603C114.068 56.9603 113.758 57.0793 113.549 57.3172C113.34 57.5552 113.236 57.8688 113.236 58.2582L113.268 58.6152H111.959C111.945 58.507 111.938 58.3808 111.938 58.2366C111.938 57.4939 112.168 56.8954 112.63 56.4411C113.099 55.9796 113.715 55.7489 114.479 55.7489C115.273 55.7489 115.896 55.9688 116.351 56.4087C116.812 56.8485 117.043 57.4182 117.043 58.1176C117.043 58.6152 116.942 59.055 116.74 59.4372C116.545 59.8194 116.21 60.2195 115.734 60.6378L113.766 62.3792H117.183V63.5906ZM119.931 60.2159V59.1019H120.623C121.063 59.1019 121.395 59.0045 121.618 58.8098C121.849 58.6152 121.965 58.3628 121.965 58.0527C121.965 57.721 121.856 57.4542 121.64 57.2523C121.424 57.0432 121.114 56.9387 120.71 56.9387C120.306 56.9387 120 57.0576 119.79 57.2956C119.581 57.5263 119.47 57.8076 119.455 58.1392H118.168C118.182 57.4614 118.424 56.8954 118.893 56.4411C119.361 55.9796 119.971 55.7489 120.721 55.7489C121.499 55.7489 122.112 55.9544 122.559 56.3654C123.014 56.7692 123.241 57.3064 123.241 57.977C123.241 58.7846 122.869 59.3326 122.127 59.6211C122.934 59.9095 123.338 60.49 123.338 61.3625C123.338 62.0475 123.093 62.6171 122.603 63.0714C122.112 63.5257 121.471 63.7528 120.677 63.7528C119.899 63.7528 119.268 63.5329 118.785 63.093C118.301 62.646 118.042 62.0511 118.006 61.3084H119.304C119.333 61.6833 119.462 61.9898 119.693 62.2277C119.931 62.4585 120.259 62.5739 120.677 62.5739C121.088 62.5739 121.416 62.4657 121.662 62.2494C121.907 62.0258 122.029 61.7302 122.029 61.3625C122.029 61.0019 121.91 60.7207 121.672 60.5188C121.435 60.3169 121.088 60.2159 120.634 60.2159H119.931Z" fill="#A8A9B2"/>
</svg>
